# Blender 4.0.2
# www.blender.org
o Cube
v 0.165577 0.074349 0.459653
v 0.282037 0.118416 0.351798
v 0.053267 0.154188 0.369840
v 0.049642 0.030648 0.568021
v 0.136482 -0.063250 0.373713
v 0.079918 -0.339690 0.203873
v -0.036330 -0.382522 0.311768
v 0.051016 -0.477424 0.119387
v 0.233956 0.085257 -0.216007
v 0.205680 -0.052717 -0.301349
v 0.121317 0.164182 -0.306962
v -0.066331 -0.519984 0.226473
v -0.060813 -0.398009 0.028186
v 0.177337 -0.190599 -0.386719
v 0.290444 -0.269455 -0.295623
v 0.060669 -0.233760 -0.278273
v 0.173784 -0.312602 -0.187632
v -0.056306 -0.276639 -0.170188
v 0.056742 -0.355481 -0.079519
v 0.370403 0.023163 0.159024
v 0.398453 0.162129 0.244116
v 0.253469 -0.020019 0.266352
v 0.285915 0.240710 0.152886
v 0.403330 0.282723 0.045335
v 0.172943 0.319476 0.062290
v -0.169484 -0.197911 -0.260644
v 0.169335 -0.434206 0.011096
v 0.403880 -0.347832 -0.204927
v 0.287231 -0.391164 -0.097582
v -0.290920 -0.361456 0.045190
v -0.403280 -0.282728 -0.045512
v -0.173574 -0.319168 -0.062577
v 0.149580 0.302570 -0.221484
v 0.036487 0.380860 -0.312787
v 0.177361 0.441137 -0.136198
v -0.459090 0.072839 0.035496
v -0.486974 -0.064454 -0.049241
v -0.345621 -0.006537 0.126025
v 0.064577 0.519582 -0.227717
v 0.059942 0.398315 -0.028393
v -0.286698 -0.240311 -0.153263
v 0.290205 0.361990 -0.045514
v -0.173071 0.312008 0.188350
v -0.402394 0.347969 0.207457
v -0.288273 0.268846 0.296893
v -0.049004 -0.033544 -0.567978
v 0.063940 -0.111942 -0.477929
v -0.165183 -0.077186 -0.459021
v -0.107987 0.200694 -0.289727
v -0.136551 0.062060 -0.374672
v -0.225042 0.158161 -0.181672
v 0.008652 0.243124 -0.397672
v 0.314108 -0.253540 -0.011374
v 0.342253 -0.115185 0.073813
v 0.197154 -0.296339 0.096307
v -0.059888 0.233041 0.279182
v -0.175760 0.190244 0.387621
v -0.431101 0.210487 0.121116
v -0.317359 0.131240 0.211279
v -0.019822 0.104987 -0.482871
v 0.056184 0.276413 0.170596
v 0.169205 0.197662 0.261133
v 0.515762 0.204031 0.136098
v 0.318438 -0.131392 -0.210171
v 0.108026 -0.201498 0.288978
v -0.008602 -0.244480 0.396842
v -0.282556 -0.119272 -0.351098
v -0.253489 0.019657 -0.266643
v -0.052257 -0.155132 -0.368669
v 0.225187 -0.158260 0.181408
v -0.179093 -0.439812 0.135614
v 0.487289 0.065643 0.050869
v 0.374664 0.144725 -0.039779
v 0.346721 0.006504 -0.124847
v 0.262054 0.223452 -0.130772
v -0.149373 -0.302707 0.221641
v 0.459309 -0.072268 -0.033779
v -0.314693 0.253743 0.012298
v -0.286938 0.391303 0.098673
v -0.062640 0.111220 0.478848
v 0.019936 -0.107033 0.481578
v -0.342195 0.115720 -0.073420
v -0.370472 -0.022544 -0.158394
v 0.092992 0.025921 -0.392489
v -0.056869 0.355204 0.080006
v -0.169737 0.434059 -0.010594
v -0.092329 -0.026445 0.392985
v -0.197548 0.296185 -0.095948
v -0.516522 -0.203000 -0.134360
v -0.374075 -0.144534 0.040486
v -0.052362 0.476889 -0.119741
v -0.080311 0.338878 -0.204094
v -0.400392 -0.161420 -0.242806
v -0.204601 0.052548 0.302453
v -0.233165 -0.085500 0.216770
v -0.121013 -0.164741 0.307070
v -0.261829 -0.223525 0.130987
v 0.431402 -0.209875 -0.118542
vn 0.1718 0.8354 0.5221
vn 0.6844 -0.4824 0.5467
vn 0.1786 0.8335 0.5228
vn 0.6863 -0.4856 0.5414
vn 0.6854 -0.4773 0.5499
vn 0.6817 -0.4843 0.5484
vn -0.7085 -0.2562 0.6575
vn -0.1703 -0.8379 -0.5186
vn 0.6820 -0.4801 0.5517
vn 0.7102 0.2593 -0.6545
vn 0.7098 0.2603 -0.6546
vn -0.1734 -0.8367 -0.5195
vn -0.1703 -0.8388 -0.5171
vn -0.1703 -0.8399 -0.5153
vn 0.7091 0.2587 -0.6559
vn -0.1694 -0.8390 -0.5172
vn -0.1674 -0.8387 -0.5182
vn -0.1703 -0.8389 -0.5170
vn -0.1704 -0.8388 -0.5171
vn 0.6825 -0.4784 0.5526
vn 0.6831 -0.4787 0.5516
vn 0.6848 -0.4779 0.5501
vn 0.1684 0.8382 0.5186
vn 0.1702 0.8388 0.5171
vn 0.1717 0.8404 0.5141
vn 0.1718 0.8389 0.5165
vn 0.7092 0.2584 -0.6559
vn 0.1707 0.8384 0.5177
vn -0.1701 -0.8402 -0.5150
vn 0.6831 -0.4788 0.5515
vn 0.6832 -0.4797 0.5506
vn 0.7093 0.2642 -0.6535
vn -0.7100 -0.2576 0.6554
vn -0.1715 -0.8393 -0.5160
vn -0.1784 -0.8370 -0.5173
vn -0.7099 -0.2579 0.6554
vn -0.1715 -0.8394 -0.5157
vn 0.7093 0.2601 -0.6551
vn 0.7099 0.2593 -0.6548
vn -0.6843 0.4765 -0.5520
vn 0.7097 0.2598 -0.6549
vn -0.7064 -0.2634 0.6570
vn -0.7072 -0.2615 0.6568
vn -0.6861 0.4777 -0.5486
vn -0.7102 -0.2593 0.6545
vn 0.1677 0.8405 0.5152
vn 0.1703 0.8388 0.5171
vn -0.1724 -0.8386 -0.5167
vn 0.1745 0.8372 0.5184
vn 0.1716 0.8396 0.5154
vn 0.1735 0.8382 0.5171
vn -0.7036 -0.2644 0.6595
vn -0.6876 0.4770 -0.5474
vn 0.7065 0.2578 -0.6590
vn -0.1699 -0.8400 -0.5152
vn -0.6824 0.4775 -0.5536
vn -0.6844 0.4790 -0.5497
vn -0.6831 0.4786 -0.5516
vn -0.6831 0.4787 -0.5516
vn 0.7087 0.2595 -0.6560
vn -0.6841 0.4781 -0.5509
vn 0.6831 -0.4786 0.5516
vn 0.6834 -0.4781 0.5518
vn 0.6827 -0.4787 0.5520
vn 0.1722 0.8398 0.5148
vn -0.7095 -0.2576 0.6559
vn -0.7094 -0.2569 0.6563
vn -0.6886 0.4817 -0.5420
vn -0.6871 0.4783 -0.5470
vn 0.7094 0.2577 -0.6560
vn 0.6855 -0.4788 0.5484
vn -0.7082 -0.2612 0.6559
vn -0.6816 0.4803 -0.5520
vn 0.7099 0.2588 -0.6550
vn 0.7105 0.2590 -0.6543
vn -0.6841 0.4803 -0.5489
vn -0.7070 -0.2593 0.6580
vn -0.7074 -0.2600 0.6573
vn -0.6847 0.4813 -0.5473
vn 0.1706 0.8398 0.5154
vn -0.6844 0.4773 -0.5511
vn -0.7046 -0.2589 0.6606
s 0
f 3//1 1//1 2//1 62//1
f 5//2 22//2 2//2 1//2
f 4//3 1//3 3//3 80//3
f 5//4 1//4 4//4 81//4
f 6//5 65//5 66//5 7//5
f 8//6 6//6 7//6 12//6
f 71//7 12//7 7//7 76//7
f 19//8 27//8 8//8 13//8
f 55//9 6//9 8//9 27//9
f 64//10 10//10 9//10 74//10
f 73//10 74//10 9//10 75//10
f 11//10 9//10 10//10 84//10
f 10//11 64//11 15//11 14//11
f 11//10 33//10 75//10 9//10
f 13//12 8//12 12//12 71//12
f 18//13 19//13 13//13 32//13
f 14//14 16//14 69//14 47//14
f 84//15 10//15 14//15 47//15
f 16//16 14//16 15//16 17//16
f 15//17 28//17 29//17 17//17
f 16//18 18//18 26//18 69//18
f 18//13 16//13 17//13 19//13
f 17//19 29//19 27//19 19//19
f 18//13 32//13 41//13 26//13
f 63//20 21//20 20//20 72//20
f 70//21 54//21 20//21 22//21
f 22//22 20//22 21//22 2//22
f 62//23 2//23 21//23 23//23
f 65//21 70//21 22//21 5//21
f 23//24 25//24 61//24 62//24
f 23//25 21//25 63//25 24//25
f 25//26 23//26 24//26 42//26
f 24//27 73//27 75//27 42//27
f 25//28 42//28 35//28 40//28
f 48//29 69//29 26//29 67//29
f 53//30 55//30 27//30 29//30
f 28//31 98//31 53//31 29//31
f 28//32 15//32 64//32 98//32
f 30//33 71//33 76//33 97//33
f 32//34 30//34 31//34 41//34
f 31//35 89//35 93//35 41//35
f 31//36 30//36 97//36 90//36
f 71//37 30//37 32//37 13//37
f 33//38 11//38 52//38 34//38
f 35//39 33//39 34//39 39//39
f 91//40 39//40 34//40 92//40
f 35//41 42//41 75//41 33//41
f 59//42 58//42 36//42 38//42
f 38//43 36//43 37//43 90//43
f 37//44 36//44 82//44 83//44
f 94//45 59//45 38//45 95//45
f 40//46 35//46 39//46 91//46
f 61//47 25//47 40//47 85//47
f 67//48 26//48 41//48 93//48
f 44//49 45//49 43//49 79//49
f 57//50 56//50 43//50 45//50
f 43//51 85//51 86//51 79//51
f 44//52 58//52 59//52 45//52
f 46//53 48//53 50//53 60//53
f 84//54 47//54 46//54 60//54
f 48//55 46//55 47//55 69//55
f 48//56 67//56 68//56 50//56
f 49//57 52//57 60//57 50//57
f 49//58 51//58 88//58 92//58
f 51//59 49//59 50//59 68//59
f 51//59 82//59 78//59 88//59
f 52//60 11//60 84//60 60//60
f 92//61 34//61 52//61 49//61
f 55//62 53//62 54//62 70//62
f 72//63 20//63 54//63 77//63
f 98//64 77//64 54//64 53//64
f 65//62 6//62 55//62 70//62
f 56//47 3//47 62//47 61//47
f 56//65 57//65 80//65 3//65
f 56//47 61//47 85//47 43//47
f 57//66 45//66 59//66 94//66
f 87//67 80//67 57//67 94//67
f 79//68 78//68 58//68 44//68
f 58//69 78//69 82//69 36//69
f 63//70 72//70 73//70 24//70
f 65//71 5//71 81//71 66//71
f 76//72 7//72 66//72 96//72
f 83//73 68//73 67//73 93//73
f 82//59 51//59 68//59 83//59
f 72//74 77//74 74//74 73//74
f 98//75 64//75 74//75 77//75
f 88//76 78//76 79//76 86//76
f 81//77 4//77 80//77 87//77
f 81//78 87//78 96//78 66//78
f 83//79 93//79 89//79 37//79
f 85//80 40//80 91//80 86//80
f 86//81 91//81 92//81 88//81
f 87//45 94//45 95//45 96//45
f 90//82 37//82 89//82 31//82
f 95//45 38//45 90//45 97//45
f 96//45 95//45 97//45 76//45
