# Blender 4.0.2
# www.blender.org
o Icosphere
v 0.885728 -0.342059 0.030496
v 0.913341 -0.078672 0.342531
v 0.774951 -0.527572 0.223272
v -0.245115 -0.165902 0.898268
v -0.501303 -0.415824 0.691907
v -0.217384 -0.437107 0.852643
v 0.447815 0.849074 -0.112212
v 0.687294 0.644427 -0.100026
v 0.384420 0.755558 -0.406273
v -0.303048 0.772490 -0.456327
v -0.022636 0.724934 -0.617257
v -0.173114 0.493022 -0.827460
v -0.136200 0.763194 0.523335
v -0.511341 0.629498 0.490446
v -0.262366 0.601696 0.713971
v 0.407443 0.845321 0.179607
v 0.226696 0.909705 -0.142326
v 0.101276 0.957336 0.067315
v 0.666899 0.633560 0.212780
v 0.311141 0.782943 0.464254
v 0.602610 0.562741 0.523479
v -0.529028 -0.152618 0.798486
v -0.466681 0.104649 0.827351
v 0.646053 0.062442 0.708529
v 0.779845 0.245985 0.464742
v 0.292580 -0.445019 -0.851813
v 0.129882 -0.636238 -0.702609
v 0.041911 -0.294962 -0.895616
v 0.413171 -0.146470 0.836339
v 0.119372 -0.332488 0.887409
v 0.196015 -0.603254 0.731397
v 0.919190 -0.160044 -0.146853
v 0.943606 0.058846 0.114332
v 0.213127 -0.871751 -0.317328
v -0.103324 -0.809812 -0.558455
v -0.496821 -0.825916 -0.094877
v -0.608398 -0.722739 0.155614
v -0.715500 -0.568917 -0.251730
v 0.155887 -0.018448 -0.948740
v -0.058591 0.087240 -1.000000
v 0.803527 0.342563 -0.366392
v 0.879223 0.396424 -0.096183
v 0.506143 0.469647 -0.670412
v 0.646882 0.592904 -0.413652
v 0.675933 0.254733 -0.618505
v -0.741332 -0.358839 0.496566
v -0.540219 0.182366 -0.764249
v -0.752584 0.170215 -0.545519
v -0.447123 0.518826 -0.667934
v 0.782305 -0.459655 -0.326942
v -0.688897 0.518276 -0.440986
v -0.523402 0.777891 -0.226003
v 0.662061 -0.666710 -0.153817
v 0.462737 -0.818543 -0.005106
v 0.255282 -0.910361 0.087221
v -0.443485 0.840925 0.310794
v -0.004892 0.894856 0.313259
v -0.297556 0.895518 0.065110
v 0.777901 0.015135 -0.546536
v 0.668618 -0.040933 -0.741704
v -0.539442 -0.202586 -0.756727
v -0.722289 -0.211567 -0.555145
v 0.094906 0.397136 -0.881489
v -0.022502 -0.959181 -0.143773
v -0.311799 -0.833888 -0.331782
v 0.023176 0.439980 0.846543
v -0.363678 0.364467 0.808455
v -0.102379 0.230584 0.918492
v -0.005797 -0.921825 0.207240
v -0.062342 -0.860993 0.447329
v -0.345899 -0.820474 0.314723
v 0.356264 -0.149555 -0.854210
v 0.597017 -0.247160 -0.697695
v -0.278278 0.057600 0.907298
v -0.882733 0.345728 0.121957
v -0.830198 0.451572 -0.160466
v -0.936689 0.075236 0.022973
v 0.545551 -0.496907 -0.621103
v 0.418835 -0.712364 -0.471180
v 0.309086 0.277574 -0.862613
v -0.760208 0.411098 0.452915
v -0.855434 0.211243 0.387679
v -0.689913 0.139337 0.638432
v -0.353518 -0.216644 -0.858236
v -0.373808 -0.586067 -0.681056
v -0.142971 -0.493421 -0.830972
v 0.921721 0.181205 -0.097051
v -0.821037 -0.457442 0.205610
v -0.879543 -0.246102 0.252898
v -0.924335 -0.211032 -0.032610
v -0.585024 -0.596086 -0.490255
v 0.444017 0.384677 0.749610
v 0.169336 0.632747 0.692207
v 0.858226 0.364682 0.188753
v -0.820896 -0.527674 -0.021844
v -0.720940 0.552037 0.273926
v 0.750275 -0.261801 0.528966
v -0.285111 0.148277 -0.877585
v 0.260696 0.168179 0.892902
v -0.594909 0.405135 0.632046
v -0.867951 -0.222062 -0.310834
v -0.212116 -0.924058 0.075991
v 0.046930 -0.040483 1.000000
v -0.446714 -0.649167 0.538144
v -0.738366 -0.107075 0.578199
v -0.940666 -0.019761 0.340998
v 0.951059 0.090190 -0.309011
v -0.918105 0.133508 -0.283027
v 0.259417 0.628986 -0.681499
v 0.515621 -0.451002 0.676686
v -0.143127 -0.666274 0.663928
v 0.250356 -0.788235 0.451777
v 0.559794 -0.684605 0.382103
v -0.650140 0.678910 0.040451
v -0.697436 -0.567901 0.368292
v 0.122638 0.887400 -0.376924
v -0.149929 0.920731 -0.191120
v 0.822414 -0.224262 -0.466936
v -0.128380 -0.151441 -0.949718
v 0.486296 0.119741 -0.826050
vn 0.9880 -0.1503 0.0368
vn 0.8871 -0.3526 0.2978
vn 0.8121 0.0264 0.5829
vn 0.8368 -0.5447 -0.0560
vn 0.6398 -0.7624 0.0966
vn 0.7162 -0.4939 0.4930
vn -0.4137 -0.2888 0.8634
vn -0.3609 -0.0515 0.9312
vn 0.0152 -0.5645 0.8253
vn -0.1023 -0.2858 0.9528
vn -0.3772 -0.6167 0.6909
vn 0.5684 0.7731 -0.2816
vn 0.6342 0.7688 0.0823
vn 0.8041 0.5361 -0.2567
vn 0.8013 0.5903 0.0976
vn 0.2338 0.7907 -0.5658
vn 0.3530 0.8843 -0.3055
vn 0.4480 0.7021 -0.5535
vn -0.2734 0.7200 -0.6379
vn -0.3316 0.9190 -0.2133
vn -0.1535 0.8797 -0.4501
vn 0.0579 0.6390 -0.7670
vn -0.2237 0.3272 -0.9181
vn -0.4084 0.3077 -0.8594
vn -0.3172 0.7462 0.5853
vn -0.0148 0.7034 0.7107
vn -0.7086 0.6436 0.2892
vn -0.4896 0.5444 0.6811
vn 0.3067 0.9516 0.0181
vn 0.2087 0.9312 0.2988
vn 0.0487 0.9870 -0.1530
vn 0.5505 0.7707 0.3209
vn 0.8148 0.4636 0.3479
vn 0.3698 0.6195 0.6925
vn -0.6856 -0.2787 0.6725
vn -0.6849 0.0218 0.7283
vn -0.3060 0.2137 0.9278
vn 0.9234 0.2231 0.3124
vn 0.6862 0.3040 0.6609
vn 0.1995 -0.1559 -0.9674
vn 0.5555 -0.2330 -0.7982
vn 0.0127 -0.4898 -0.8718
vn 0.2409 -0.8041 -0.5436
vn 0.3565 -0.7048 -0.6133
vn 0.1128 -0.2341 -0.9657
vn 0.3499 -0.3646 0.8629
vn 0.4547 0.1177 0.8828
vn 0.6204 -0.2046 0.7571
vn 0.3769 -0.1165 0.9189
vn 0.0936 -0.7782 0.6210
vn 0.4024 -0.7055 0.5834
vn 0.9311 -0.3100 -0.1919
vn 0.9998 -0.0099 0.0169
vn 0.9711 0.2283 0.0692
vn 0.4739 -0.8479 -0.2378
vn 0.3083 -0.9434 -0.1222
vn -0.0590 -0.9428 -0.3281
vn -0.0974 -0.6565 -0.7480
vn -0.4119 -0.7761 -0.4775
vn -0.4198 -0.8922 0.1665
vn -0.6855 -0.7222 -0.0925
vn -0.5061 -0.7817 0.3643
vn -0.8037 -0.3940 -0.4460
vn -0.5635 -0.7626 -0.3176
vn 0.2554 0.1909 -0.9478
vn -0.4280 -0.0063 -0.9038
vn 0.9169 0.3493 -0.1931
vn 0.3366 0.4685 -0.8168
vn 0.7336 0.3971 -0.5515
vn 0.7152 0.2537 -0.6512
vn 0.5391 0.3166 -0.7805
vn 0.7858 0.2498 -0.5658
vn -0.8618 -0.3594 0.3579
vn -0.5992 -0.5210 0.6080
vn -0.8351 -0.2714 0.4784
vn -0.4373 0.0072 -0.8993
vn -0.6619 0.3466 -0.6646
vn -0.7276 -0.0276 -0.6855
vn -0.8465 0.3340 -0.4147
vn -0.8476 -0.0657 -0.5266
vn -0.4896 0.7127 -0.5023
vn 0.7118 -0.3940 -0.5815
vn 0.6249 -0.6707 -0.3995
vn -0.5222 0.8525 -0.0224
vn -0.7350 0.6588 -0.1606
vn 0.0266 -0.9942 0.1045
vn 0.4098 -0.8776 0.2487
vn -0.1176 0.9423 0.3135
vn 0.0369 0.8297 0.5569
vn -0.1530 0.9837 0.0945
vn 0.7874 -0.2087 -0.5800
vn 0.3920 -0.1962 -0.8988
vn -0.6446 -0.3761 -0.6656
vn -0.2812 -0.9492 -0.1411
vn -0.1696 0.4186 0.8922
vn 0.2558 0.4253 0.8681
vn -0.5796 0.2556 0.7738
vn 0.1194 0.3074 0.9441
vn -0.2054 -0.9478 0.2438
vn 0.1978 -0.9325 0.3023
vn -0.3103 -0.7899 0.5290
vn 0.3410 0.0192 -0.9399
vn -0.2613 0.0449 0.9642
vn -0.8100 0.5823 0.0690
vn -0.9669 0.2507 -0.0469
vn -0.9645 0.2302 0.1290
vn -0.9879 -0.1512 0.0342
vn -0.9879 -0.0789 -0.1332
vn -0.7511 0.2286 0.6194
vn -0.8732 0.4245 0.2394
vn -0.7830 0.0811 0.6167
vn -0.4271 -0.3718 -0.8242
vn -0.1515 -0.3185 -0.9357
vn -0.9489 -0.2982 0.1030
vn -0.8951 -0.3712 -0.2468
vn -0.7525 -0.6356 0.1726
vn -0.6200 0.6249 0.4745
vn 0.9029 -0.1714 -0.3943
s 0
f 1//1 32//1 33//1 2//1
f 3//2 1//2 2//2 97//2
f 2//3 25//3 24//3 97//3
f 50//4 1//4 3//4 53//4
f 54//5 53//5 3//5 113//5
f 3//6 97//6 110//6 113//6
f 5//7 6//7 4//7 22//7
f 23//8 22//8 4//8 74//8
f 6//9 111//9 31//9 30//9
f 6//10 30//10 103//10 4//10
f 6//11 5//11 104//11 111//11
f 9//12 7//12 8//12 44//12
f 8//13 7//13 16//13 19//13
f 8//14 42//14 41//14 44//14
f 8//15 19//15 94//15 42//15
f 9//16 109//16 11//16 116//16
f 17//17 7//17 9//17 116//17
f 9//18 44//18 43//18 109//18
f 10//19 11//19 12//19 49//19
f 10//20 52//20 58//20 117//20
f 116//21 11//21 10//21 117//21
f 63//22 12//22 11//22 109//22
f 12//23 63//23 40//23 98//23
f 12//24 98//24 47//24 49//24
f 14//25 15//25 13//25 56//25
f 66//26 93//26 13//26 15//26
f 14//27 56//27 114//27 96//27
f 15//28 14//28 100//28 67//28
f 17//29 18//29 16//29 7//29
f 57//30 20//30 16//30 18//30
f 17//31 116//31 117//31 18//31
f 20//32 21//32 19//32 16//32
f 19//33 21//33 25//33 94//33
f 20//34 93//34 92//34 21//34
f 46//35 5//35 22//35 105//35
f 22//36 23//36 83//36 105//36
f 23//37 74//37 68//37 67//37
f 25//38 2//38 33//38 94//38
f 92//39 24//39 25//39 21//39
f 26//40 28//40 39//40 72//40
f 26//41 72//41 73//41 78//41
f 28//42 26//42 27//42 86//42
f 34//43 35//43 27//43 79//43
f 78//44 79//44 27//44 26//44
f 40//45 39//45 28//45 119//45
f 29//46 30//46 31//46 110//46
f 92//47 99//47 29//47 24//47
f 97//48 24//48 29//48 110//48
f 30//49 29//49 99//49 103//49
f 31//50 111//50 70//50 112//50
f 31//51 112//51 113//51 110//51
f 32//52 1//52 50//52 118//52
f 32//53 107//53 87//53 33//53
f 33//54 87//54 42//54 94//54
f 53//55 54//55 34//55 79//55
f 34//56 54//56 55//56 64//56
f 64//57 65//57 35//57 34//57
f 35//58 85//58 86//58 27//58
f 91//59 85//59 35//59 65//59
f 71//60 37//60 36//60 102//60
f 38//61 36//61 37//61 95//61
f 37//62 71//62 104//62 115//62
f 62//63 91//63 38//63 101//63
f 38//64 91//64 65//64 36//64
f 63//65 80//65 39//65 40//65
f 84//66 98//66 40//66 119//66
f 87//67 107//67 41//67 42//67
f 43//68 80//68 63//68 109//68
f 45//69 43//69 44//69 41//69
f 45//70 59//70 60//70 120//70
f 80//71 43//71 45//71 120//71
f 45//72 41//72 107//72 59//72
f 88//73 115//73 46//73 89//73
f 104//74 5//74 46//74 115//74
f 46//75 105//75 106//75 89//75
f 47//76 98//76 84//76 61//76
f 49//77 47//77 48//77 51//77
f 61//78 62//78 48//78 47//78
f 76//79 51//79 48//79 108//79
f 101//80 108//80 48//80 62//80
f 49//81 51//81 52//81 10//81
f 50//82 78//82 73//82 118//82
f 50//83 53//83 79//83 78//83
f 52//84 114//84 56//84 58//84
f 52//85 51//85 76//85 114//85
f 102//86 64//86 55//86 69//86
f 113//87 112//87 55//87 54//87
f 57//88 58//88 56//88 13//88
f 57//89 13//89 93//89 20//89
f 57//90 18//90 117//90 58//90
f 59//91 118//91 73//91 60//91
f 72//92 120//92 60//92 73//92
f 61//93 85//93 91//93 62//93
f 102//94 36//94 65//94 64//94
f 67//95 68//95 66//95 15//95
f 66//96 99//96 92//96 93//96
f 67//97 100//97 83//97 23//97
f 99//98 66//98 68//98 103//98
f 69//99 70//99 71//99 102//99
f 112//100 70//100 69//100 55//100
f 104//101 71//101 70//101 111//101
f 80//102 120//102 72//102 39//102
f 74//103 4//103 103//103 68//103
f 75//104 96//104 114//104 76//104
f 77//105 75//105 76//105 108//105
f 77//106 106//106 82//106 75//106
f 77//107 90//107 89//107 106//107
f 77//108 108//108 101//108 90//108
f 81//109 82//109 83//109 100//109
f 82//110 81//110 96//110 75//110
f 106//111 105//111 83//111 82//111
f 85//112 61//112 84//112 86//112
f 119//113 28//113 86//113 84//113
f 88//114 89//114 90//114 95//114
f 101//115 38//115 95//115 90//115
f 95//116 37//116 115//116 88//116
f 100//117 14//117 96//117 81//117
f 107//118 32//118 118//118 59//118
